<?xml version="1.0" encoding="UTF-8" standalone="no"?>
<svg
   xmlns:dc="http://purl.org/dc/elements/1.1/"
   xmlns:cc="http://creativecommons.org/ns#"
   xmlns:rdf="http://www.w3.org/1999/02/22-rdf-syntax-ns#"
   xmlns:svg="http://www.w3.org/2000/svg"
   xmlns="http://www.w3.org/2000/svg"
   id="svg8"
   version="1.1"
   viewBox="0 0 135.46669 132.86032"
   height="132.86032mm"
   width="135.46669mm">
  <defs
     id="defs2" />
  <metadata
     id="metadata5">
    <rdf:RDF>
      <cc:Work
         rdf:about="">
        <dc:format>image/svg+xml</dc:format>
        <dc:type
           rdf:resource="http://purl.org/dc/dcmitype/StillImage" />
        <dc:title></dc:title>
      </cc:Work>
    </rdf:RDF>
  </metadata>
  <g
     transform="translate(-35.832167,-67.922306)"
     id="layer1">
    <path
       id="path24"
       d="m 135.80861,200.6189 c -0.11151,-0.11152 -1.68017,-0.69847 -7.10769,-2.6595 -2.9474,-1.06494 -6.66849,-2.43677 -8.59896,-3.17014 -1.01865,-0.38696 -2.32833,-0.85984 -2.91042,-1.05083 -0.58208,-0.19098 -1.89177,-0.66433 -2.91041,-1.05188 -1.01865,-0.38755 -2.68552,-1.00644 -3.70417,-1.37531 -2.78607,-1.0089 -7.45521,-2.72915 -9.39271,-3.46057 -0.94589,-0.35707 -2.076985,-0.75571 -2.513545,-0.88585 -0.43656,-0.13014 -1.03187,-0.35148 -1.32292,-0.49186 -0.29104,-0.14038 -1.06494,-0.43394 -1.71979,-0.65234 -0.65484,-0.21841 -2.02406,-0.71095 -3.04271,-1.09454 -5.18964,-1.95426 -7.736195,-2.78333 -8.334362,-2.71339 l -0.661467,0.0773 -0.06981,8.53281 c -0.0384,4.69305 -0.157459,8.52972 -0.264583,8.52595 -0.107125,-0.004 -1.921179,-2.32622 -4.031231,-5.16098 -2.110052,-2.83477 -7.970433,-10.66004 -13.023067,-17.3895 -5.052636,-6.72945 -9.190058,-12.3412 -9.19427,-12.47055 -0.0043,-0.13259 0.713745,-0.15199 1.645983,-0.0445 0.909506,0.10489 3.201459,0.29039 5.093229,0.41223 7.694091,0.49551 11.351064,0.77463 12.007725,0.91649 0.681771,0.14728 5.85593,0.53481 12.598523,0.94358 1.89177,0.11469 5.64224,0.4027 8.33438,0.64001 5.317345,0.46874 9.897135,0.80651 15.875005,1.17081 2.11005,0.1286 4.01505,0.30543 4.23333,0.39298 0.36485,0.14633 3.87579,0.41418 12.83229,0.97897 1.89177,0.11929 5.49764,0.36265 8.01305,0.54081 3.58709,0.25405 4.64277,0.25462 4.8948,0.003 0.24829,-0.24826 0.33717,-8.70442 0.39109,-37.20616 l 0.0698,-36.884874 0.98856,-0.14975 c 0.54371,-0.0824 1.56319,-0.26605 2.26552,-0.40819 0.70232,-0.14215 1.67551,-0.25844 2.16263,-0.25844 0.48711,0 1.4603,-0.11106 2.16262,-0.24678 1.1948,-0.2309 5.13953,-0.8906 7.23008,-1.20912 0.50933,-0.0776 1.81901,-0.24996 2.91042,-0.38301 1.09141,-0.13304 3.11547,-0.44194 4.49792,-0.68644 1.38244,-0.24449 3.31721,-0.52164 4.29948,-0.6159 l 1.78593,-0.17136 v 40.814644 c 0,30.3323 -0.0773,40.81464 -0.30108,40.81464 -0.28119,0 -2.1402,1.45884 -8.07884,6.33979 -1.33474,1.09702 -3.46386,2.82802 -4.73139,3.84667 -1.26752,1.01864 -3.4032,2.74505 -4.74595,3.83645 -1.34276,1.09141 -4.49584,3.65125 -7.00685,5.68855 -2.51102,2.03729 -5.61928,4.56737 -6.90726,5.62239 -2.09543,1.71645 -3.24286,2.26997 -3.71885,1.79398 z M 52.286583,161.04778 c -0.91825,-0.43223 -1.817172,-0.78588 -1.997605,-0.78588 -0.180435,0 -0.441171,-0.0996 -0.579416,-0.22133 -0.138245,-0.12174 -0.906198,-0.49131 -1.706562,-0.82129 -2.129825,-0.87807 -2.871497,-1.19742 -4.571296,-1.96831 -0.840722,-0.38128 -1.680112,-0.69324 -1.865313,-0.69324 -0.185197,0 -0.449834,-0.099 -0.588078,-0.21996 -0.138245,-0.12098 -1.025261,-0.54405 -1.971146,-0.94018 -0.945886,-0.39611 -2.047214,-0.86198 -2.447396,-1.03525 l -0.727604,-0.31503 v -18.78948 c 0,-17.95471 0.02162,-18.80297 0.486577,-19.09335 0.413199,-0.25804 1.640998,-1.81026 6.657173,-8.41618 6.319501,-8.322304 6.790147,-8.869744 7.625561,-8.869744 0.303392,0 0.825116,-0.10827 1.159385,-0.2406 0.33427,-0.13233 1.322136,-0.43951 2.195261,-0.68263 0.873125,-0.24311 1.885157,-0.53775 2.248959,-0.65475 0.363802,-0.117 1.137708,-0.34243 1.719791,-0.50096 0.582084,-0.15852 1.772708,-0.48292 2.645833,-0.7209 0.873125,-0.23797 1.794243,-0.5388 2.046931,-0.6685 0.252687,-0.1297 0.64508,-0.23582 0.871984,-0.23582 0.226907,0 1.38938,-0.30235 2.583278,-0.67189 1.193898,-0.36953 2.646974,-0.80006 3.229057,-0.95672 0.582083,-0.15667 1.35599,-0.38058 1.719792,-0.49758 0.363802,-0.117 1.316302,-0.39721 2.116666,-0.62268 0.800365,-0.22547 2.94349,-0.83395 4.7625,-1.35218 1.81901,-0.51822 3.962135,-1.1267 4.7625,-1.35217 0.800364,-0.22548 1.752864,-0.50568 2.116666,-0.62268 0.363802,-0.11701 1.197244,-0.35941 1.852084,-0.53869 0.65484,-0.17927 1.48828,-0.42168 1.85208,-0.53868 0.3638,-0.11701 1.37584,-0.41307 2.24896,-0.65793 2.2197,-0.62248 3.02947,-0.94461 3.46212,-1.37726 0.3078,-0.3078 0.37434,-1.94649 0.37434,-9.21899 0,-5.36256 0.0982,-8.84464 0.24946,-8.84464 0.25763,0 1.57382,0.70642 3.19012,1.71217 1.50754,0.93808 3.760745,2.28637 4.894795,2.92898 0.58209,0.32984 2.66568,1.58071 4.63021,2.77972 1.96453,1.19901 4.22672,2.57055 5.02709,3.04786 3.85286,2.29774 4.71691,2.81431 5.83564,3.48884 0.66299,0.39974 1.79408,1.07141 2.51354,1.4926 0.71946,0.42119 1.72483,1.02538 2.23415,1.34264 0.50932,0.31727 1.58088,0.97053 2.38125,1.45169 0.80036,0.48116 3.77693,2.27137 6.61458,3.97824 2.83766,1.70688 5.51656,3.29621 5.95313,3.53185 1.1648,0.62871 1.83744,1.20346 1.63977,1.40112 -0.0955,0.0955 -0.74167,0.27381 -1.43589,0.39619 -0.69422,0.12238 -2.09565,0.40825 -3.1143,0.63526 -1.01865,0.22701 -2.4474,0.5262 -3.175,0.66486 -2.00503,0.38211 -3.50354,0.68655 -5.68854,1.1557 -1.09141,0.23434 -2.57969,0.54249 -3.30729,0.68478 -0.72761,0.1423 -2.15636,0.44467 -3.175,0.67194 -1.75309,0.39114 -2.93844,0.63283 -5.68854,1.159884 -0.65485,0.1255 -2.0836,0.42787 -3.175,0.67194 -1.09141,0.24406 -2.34157,0.50046 -2.77813,0.56977 -0.43656,0.0693 -1.27,0.22914 -1.85208,0.35517 -0.58209,0.12604 -2.01084,0.42773 -3.175,0.67043 -1.16417,0.2427 -2.48232,0.55059 -2.92922,0.6842 -0.446885,0.13361 -1.087915,0.24292 -1.424505,0.24292 -0.33658,0 -1.04251,0.10813 -1.56871,0.2403 -0.52621,0.13217 -1.90924,0.43755 -3.07341,0.67864 -1.16416,0.24108 -2.4823,0.54966 -2.9292,0.68574 -0.44689,0.13608 -1.06235,0.24741 -1.36769,0.24741 -0.30534,0 -1.24938,0.1651 -2.09788,0.36688 -1.43531,0.34134 -2.712036,0.60955 -6.040642,1.26901 -0.727604,0.14416 -1.786326,0.38068 -2.352717,0.52562 -0.967441,0.24756 -2.091494,0.47469 -4.923324,0.9948 -0.654844,0.12028 -2.143125,0.42356 -3.307292,0.67397 -2.092724,0.45014 -2.849321,0.60634 -5.688541,1.1744 -0.800365,0.16014 -2.288646,0.4771 -3.307292,0.70436 -1.018645,0.22726 -2.387864,0.51001 -3.042708,0.62832 -3.141765,0.56767 -4.126976,0.84705 -4.43177,1.25673 -0.258924,0.34803 -0.33073,5.68979 -0.33073,24.60336 0,13.28734 -0.0893,24.15526 -0.198437,24.15093 -0.109141,-0.004 -0.949732,-0.36151 -1.867979,-0.79375 z"
       style="fill:#0078d4;fill-opacity:1;stroke-width:0.264583" />
  </g>
</svg>
